<svg id="Layer_1" data-name="Layer 1" xmlns="http://www.w3.org/2000/svg" viewBox="0 0 216 216"><defs><style>.cls-1{fill:#fff;}.cls-2{fill:#ff5c42;}</style></defs><rect class="cls-1" width="216" height="216"/><path class="cls-2" d="M67.45,79.43V68.55A2.23,2.23,0,0,1,68.1,67l38.31-38.31a2.25,2.25,0,0,1,3.18,0L147.9,67a2.23,2.23,0,0,1,.65,1.58V79.42A2.24,2.24,0,0,1,148,81l-19.84,21.2a1.69,1.69,0,0,1-2.46,0l-14-14.91a2.27,2.27,0,0,1-.61-1.54V79.46a2.25,2.25,0,0,1,2.25-2.25h2.51A2.25,2.25,0,0,0,118.1,75V73.27A2.24,2.24,0,0,0,115.85,71h-15.7a2.24,2.24,0,0,0-2.25,2.24V75a2.25,2.25,0,0,0,2.25,2.25h2.51a2.25,2.25,0,0,1,2.25,2.25v6.25a2.27,2.27,0,0,1-.61,1.54l-14,14.91a1.69,1.69,0,0,1-2.46,0L68.05,81A2.23,2.23,0,0,1,67.45,79.43ZM114,117.23l7.56-8.08a1.67,1.67,0,0,0,0-2.3L114,98.77a1.69,1.69,0,0,0-2.92,1.15v16.16A1.69,1.69,0,0,0,114,117.23Zm43.61,22.09,29.72-29.73a2.25,2.25,0,0,0,0-3.18L157.62,76.68a1.69,1.69,0,0,0-2.88,1.2v60.24A1.69,1.69,0,0,0,157.62,139.32Zm-9.07-16.95V93.63a1.68,1.68,0,0,0-2.91-1.15l-13.45,14.37a1.69,1.69,0,0,0,0,2.3l13.45,14.37A1.68,1.68,0,0,0,148.55,122.37ZM102,98.77l-7.56,8.08a1.67,1.67,0,0,0,0,2.3l7.56,8.08a1.69,1.69,0,0,0,2.92-1.15V99.92A1.69,1.69,0,0,0,102,98.77ZM58.38,76.68,28.66,106.41a2.25,2.25,0,0,0,0,3.18l29.72,29.73a1.69,1.69,0,0,0,2.88-1.2V77.88A1.69,1.69,0,0,0,58.38,76.68ZM148,135l-19.84-21.2a1.69,1.69,0,0,0-2.46,0l-14,14.91a2.27,2.27,0,0,0-.61,1.54v6.25a2.25,2.25,0,0,0,2.25,2.25h2.51A2.25,2.25,0,0,1,118.1,141v1.69a2.24,2.24,0,0,1-2.25,2.24h-15.7a2.24,2.24,0,0,1-2.25-2.24V141a2.25,2.25,0,0,1,2.25-2.25h2.51a2.25,2.25,0,0,0,2.25-2.25v-6.25a2.27,2.27,0,0,0-.61-1.54l-14-14.91a1.69,1.69,0,0,0-2.46,0L68.05,135a2.24,2.24,0,0,0-.6,1.54v10.87A2.23,2.23,0,0,0,68.1,149l38.31,38.31a2.25,2.25,0,0,0,3.18,0L147.9,149a2.23,2.23,0,0,0,.65-1.58V136.58A2.26,2.26,0,0,0,148,135ZM67.45,93.63v28.74a1.68,1.68,0,0,0,2.91,1.15l13.45-14.37a1.69,1.69,0,0,0,0-2.3L70.36,92.48A1.68,1.68,0,0,0,67.45,93.63Z"/></svg>