<?xml version="1.0" encoding="utf-8"?>
<!-- Generator: Adobe Illustrator 24.3.0, SVG Export Plug-In . SVG Version: 6.00 Build 0)  -->
<svg version="1.1" id="Layer_1" xmlns="http://www.w3.org/2000/svg" xmlns:xlink="http://www.w3.org/1999/xlink" x="0px" y="0px"
	 viewBox="0 0 216 216" style="enable-background:new 0 0 216 216;" xml:space="preserve">
<style type="text/css">
	.st0{fill:#FFFFFF;}
	.st1{fill:#FF5C42;}
</style>
<g>
	<rect class="st0" width="216" height="216"/>
	<path class="st1" d="M142.6,188.1c-13-4.3-22.3-13.3-25.7-24.7c-5.9-19.8,7.7-35.8,20.7-51.3c2.3-2.7,4.6-5.5,6.8-8.2
		c5.6-7,12.3-16.5,14.1-27.5c1.3-8.2,0-16.6-3.7-24c-0.9-2.3-3.4-3.5-5.8-2.7c-2.3,0.9-3.5,3.4-2.7,5.8c0.1,0.3,0.3,0.6,0.4,0.9
		c2.9,5.7,3.9,12.1,2.9,18.4c-1.5,8.9-7.1,16.8-12.3,23.4c-0.8,0.9-1.5,1.9-2.3,2.8c0.1-5.4-1.5-10.8-4.5-15.3
		c-3.1-4.7-7-8.5-10.8-12.1c-1.6-1.5-3.1-3-4.6-4.5l-1.2-1.1c3.1-3.6,5.9-7.5,8.3-11.5c4-6.8,10.4-20.3,7.2-34
		c-0.5-2.4-2.8-4-5.3-3.6c-2.4,0.5-4,2.8-3.6,5.3c0,0.1,0,0.2,0.1,0.3c1.8,7.8-0.5,17.7-6.2,27.4c-2,3.3-4.2,6.4-6.6,9.3
		c-2.4-2.9-4.6-6-6.6-9.3c-5.7-9.6-8-19.6-6.2-27.4c0.5-2.4-1.1-4.8-3.6-5.3c-2.3-0.5-4.6,1-5.2,3.3c-3.1,13.7,3.2,27.1,7.2,34
		c2.5,4,5.3,7.9,8.3,11.5l-1.1,1.2c-1.4,1.5-3,3-4.6,4.5c-3.8,3.7-7.7,7.4-10.8,12.1c-3,4.5-4.6,9.8-4.5,15.3
		c-0.8-1-1.6-1.9-2.3-2.8c-5.3-6.6-10.8-14.4-12.4-23.4c-1-6.3,0-12.7,2.9-18.4c1.4-2.1,0.8-4.9-1.3-6.2c-2.1-1.4-4.9-0.8-6.2,1.3
		c-0.2,0.3-0.3,0.6-0.4,0.9c-3.8,7.4-5.1,15.8-3.7,24C59.4,87.5,66,97,71.6,104c2.2,2.7,4.5,5.5,6.8,8.2
		c13.1,15.5,26.6,31.5,20.7,51.3c-3.4,11.4-12.8,20.4-25.7,24.7c-2.4,0.8-3.6,3.4-2.8,5.7c0.6,1.8,2.3,3,4.2,3.1
		c0.5,0,1-0.1,1.4-0.2c15.8-5.2,27.3-16.4,31.5-30.7c0.1-0.3,0.2-0.6,0.2-0.9c0.1,0.3,0.2,0.6,0.2,0.9c4.2,14.3,15.7,25.5,31.5,30.7
		c0.5,0.1,0.9,0.2,1.4,0.2c2.5,0,4.5-2.1,4.5-4.5C145.7,190.5,144.4,188.8,142.6,188.1L142.6,188.1z M99.7,124.9
		c-0.1-0.3-0.3-0.5-0.4-0.8C89.3,109.3,87.4,99.4,93,90.8c2.5-3.8,5.9-7.1,9.5-10.6c1.6-1.5,3.2-3.1,4.8-4.8l0.7-0.7l0.7,0.7
		c1.6,1.6,3.2,3.2,4.8,4.8c3.6,3.4,7,6.7,9.5,10.6c5.6,8.6,3.7,18.5-6.3,33.3c-0.2,0.2-0.3,0.5-0.4,0.8c-3.6,5.4-6.4,11.2-8.3,17.4
		C106.2,136.1,103.4,130.2,99.7,124.9z M69.6,138.8c-1.6-0.6-3.4-1-5.1-1.1h-0.3c-10.5,0-18.5,6-20.1,14.9c-0.4,2.1-2.3,3.7-4.4,3.7
		c-0.3,0-0.5,0-0.8-0.1c-2.4-0.4-4.1-2.8-3.6-5.2c0,0,0,0,0,0c0.8-4.4,2.7-8.5,5.5-12c-7.5,0.1-15-1.1-21-6.9
		c-1.8-1.7-1.8-4.6-0.1-6.4s4.6-1.8,6.4-0.1l0,0c5.7,5.5,14.6,4.7,24,3.7c2.3-0.2,4.7-0.5,7-0.6l-2-1c-9.2-4.7-19.6-10-25.6-19.7
		c-6.1-10-6.2-22.6-0.4-32.8c1.2-2.2,3.9-3,6.1-1.8c2.2,1.2,3,3.9,1.8,6.1c-0.1,0.1-0.1,0.2-0.2,0.3c-4.2,7.3-4.1,16.3,0.3,23.4
		c1.1,1.7,2.4,3.3,3.8,4.7c-0.1-5.2,1.5-10.3,4.4-13.7c1.6-1.9,4.5-2.1,6.4-0.5c1.9,1.6,2.1,4.5,0.5,6.4l0,0
		c-1.6,1.9-2.8,6-1.9,10.3c0.6,3.2,2.6,6,5.5,7.4c1.2,0.6,2.3,1.2,3.5,1.8c7.5,3.8,18.3,9.3,24.3,19.2c0.2,0.3,0.4,0.6,0.6,0.9
		l0.2,0.3h-0.1c0.8,1.5,1.5,3.1,2.1,4.7c2.5,7.9,2,16.4-1.4,23.9c-1,2.3-3.6,3.3-5.9,2.3s-3.3-3.6-2.3-5.9
		c2.5-5.5,2.9-11.7,1.1-17.4c-0.5-1.3-1-2.6-1.7-3.8C74.3,141.7,72.1,139.9,69.6,138.8z M175.3,139c2.9,3.5,4.8,7.6,5.5,12
		c0.4,2.4-1.2,4.8-3.6,5.2c-0.3,0-0.5,0.1-0.8,0.1c-2.2,0-4-1.6-4.4-3.7c-1.6-8.9-9.7-14.9-20.1-14.9h-0.3c-1.8,0.1-3.5,0.5-5.2,1.1
		c-2.5,1.1-4.7,2.8-6.3,5c-0.7,1.2-1.3,2.5-1.8,3.8c-1.8,5.7-1.4,11.9,1.1,17.4c1,2.3,0,4.9-2.3,5.9s-4.9,0-5.9-2.3l0,0
		c-3.4-7.5-3.9-16-1.4-23.9c0.6-1.6,1.3-3.2,2.1-4.7h-0.1l0.2-0.3c0.2-0.3,0.4-0.6,0.6-0.9c6-9.8,16.8-15.3,24.3-19.2
		c1.2-0.6,2.3-1.2,3.5-1.8c2.9-1.4,5-4.2,5.5-7.4c0.9-4.3-0.3-8.4-1.9-10.3c-1.6-1.9-1.3-4.7,0.6-6.3c1.9-1.6,4.7-1.4,6.3,0.5
		c2.9,3.4,4.4,8.5,4.4,13.7c1.4-1.4,2.7-3,3.8-4.7c4.3-7.2,4.4-16.2,0.3-23.5c-1.3-2.1-0.5-4.9,1.6-6.2s4.9-0.5,6.2,1.6
		c5.8,10.2,5.7,22.7-0.4,32.8c-6,9.7-16.4,15-25.7,19.6l-2,1c2.4,0.1,4.7,0.4,7,0.6c9.4,0.9,18.3,1.8,24-3.7
		c1.8-1.7,4.6-1.7,6.4,0.1c1.7,1.8,1.7,4.6-0.1,6.4l0,0C190.3,137.8,182.8,139.1,175.3,139L175.3,139z"/>
</g>
</svg>
